<svg fill="none" xmlns="http://www.w3.org/2000/svg" viewBox="0 0 16 16" class="design-iconfont">
  <path d="M5.17337 10.8271C4.44671 10.1071 4.00004 9.10711 4.00004 8.00044C4.00004 6.89378 4.44671 5.89378 5.17337 5.17378L6.12004 6.12044C5.63337 6.60044 5.33337 7.26711 5.33337 8.00044C5.33337 8.73378 5.63337 9.40044 6.11337 9.88711L5.17337 10.8271ZM10.8267 10.8271C11.5534 10.1071 12 9.10711 12 8.00044C12 6.89378 11.5534 5.89378 10.8267 5.17378L9.88004 6.12044C10.3667 6.60044 10.6667 7.26711 10.6667 8.00044C10.6667 8.73378 10.3667 9.40044 9.88671 9.88711L10.8267 10.8271ZM8.00004 6.66711C7.26671 6.66711 6.66671 7.26711 6.66671 8.00044C6.66671 8.73378 7.26671 9.33378 8.00004 9.33378C8.73337 9.33378 9.33337 8.73378 9.33337 8.00044C9.33337 7.26711 8.73337 6.66711 8.00004 6.66711ZM13.3334 8.00044C13.3334 9.47378 12.7334 10.8071 11.7667 11.7671L12.7134 12.7138C13.92 11.5071 14.6667 9.84044 14.6667 8.00044C14.6667 6.16044 13.92 4.49378 12.7134 3.28711L11.7667 4.23378C12.7334 5.19378 13.3334 6.52711 13.3334 8.00044ZM4.23337 4.23378L3.28671 3.28711C2.08004 4.49378 1.33337 6.16044 1.33337 8.00044C1.33337 9.84044 2.08004 11.5071 3.28671 12.7138L4.23337 11.7671C3.26671 10.8071 2.66671 9.47378 2.66671 8.00044C2.66671 6.52711 3.26671 5.19378 4.23337 4.23378Z" fill="currentColor"/>
</svg>
